<svg class="svg-icon" style="width: 5em; height: 5em;vertical-align: middle;fill: currentColor;overflow: hidden;" viewBox="0 0 768 768" version="1.1" xmlns="http://www.w3.org/2000/svg">
<path d="M0 0h1024v1024H0z" fill="none" />
<path d="M490.1 498.7c-1.1 0-2.2-0.5-2.9-1.4-1.3-1.6-1.1-4 0.5-5.3 9.2-7.6 20.2-12.8 32.6-15.3 2.1-0.4 4.1 0.9 4.5 3s-0.9 4.1-3 4.5c-11.2 2.3-21.1 6.9-29.3 13.7-0.7 0.5-1.6 0.8-2.4 0.8z" fill="#FFFFFF" />
<path d="M538.1 772.2c-65.6 0-119.3-53.7-119.3-119.3V346.6c0-65.6 53.7-119.3 119.3-119.3S657.4 281 657.4 346.6V653c0 65.6-53.7 119.2-119.3 119.2z" fill="#4DECE1" />
<path d="M485.9 748c-65.6 0-119.3-53.7-119.3-119.3V322.3c0-65.6 53.7-119.3 119.3-119.3s119.3 53.7 119.3 119.3v306.4c-0.1 65.6-53.7 119.3-119.3 119.3z" fill="#4CF4F2" />
<path d="M485.9 755.5c-69.9 0-126.8-56.9-126.8-126.8V322.3c0-69.9 56.9-126.8 126.8-126.8s126.8 56.9 126.8 126.8v306.4c-0.1 69.9-56.9 126.8-126.8 126.8z m0-544.9c-61.6 0-111.8 50.1-111.8 111.8v306.4c0 61.6 50.1 111.8 111.8 111.8 61.6 0 111.8-50.1 111.8-111.8V322.3c-0.1-61.6-50.2-111.7-111.8-111.7z" fill="#6B3437" />
<path d="M598.3 464v160.4c0 62-50.7 112.7-112.7 112.7-2.9 0-5.7-0.1-8.5-0.3 58.1-4.4 104.2-53.2 104.2-112.4l1.7-154" fill="#30D8BB" />
<path d="M485.8 213.6c-63.7 0-115.9 52.2-115.9 115.9v142.1c35.4 15.9 74.6 24.8 115.9 24.8 41.3 0 80.5-8.9 115.9-24.8V329.5c0-63.8-52.1-115.9-115.9-115.9z" fill="#6B3437" />
<path d="M484.8 210c-61.5 0-110.7 52.4-110.7 112v132.9c34.1 14.9 71.9 23.2 111.7 23.2s77.6-8.3 111.7-23.2V322c0.1-59.6-51.3-112-112.7-112z" fill="#FEA7C1" />
<path d="M600.2 453.7l0.3-128.5c0-63.7-49.3-115.2-113-115.2-2.9 0-5.8 0.1-8.7 0.3 59.6 4.5 107 53 107 113.8l-1.7 136.5" fill="#F27A97" />
<path d="M539.5 520c-1.7 0-3.3-1.2-3.7-3-0.5-2 0.8-4.1 2.9-4.5 8.8-1.9 17.7-4.3 26.4-7.1 2-0.6 4.1 0.5 4.8 2.5 0.6 2-0.5 4.1-2.5 4.8-9 2.9-18.1 5.3-27.1 7.3h-0.8zM480.2 526.7c-48.1 0-76.9-13.5-78.4-14.2-1.9-0.9-2.7-3.2-1.8-5.1s3.2-2.7 5.1-1.8c0.4 0.2 44.4 20.7 113.2 10.7 2.1-0.3 4 1.1 4.3 3.2 0.3 2.1-1.1 4-3.2 4.3-14.1 2-27.2 2.9-39.2 2.9zM388.2 371.7c-1.9 0-3.5-1.4-3.8-3.3-0.3-2.6-8-64.9 17-107.8 1.1-1.8 3.4-2.4 5.2-1.4 1.8 1.1 2.4 3.4 1.4 5.2-23.6 40.7-16.1 102.4-16 103 0.3 2.1-1.2 4-3.3 4.2-0.2 0.1-0.4 0.1-0.5 0.1z" fill="#FFFFFF" /></svg>