<?xml version="1.0" standalone="no"?>
<!DOCTYPE svg>
<svg version="1.0" xmlns="http://www.w3.org/2000/svg"
 width="214.000000pt" height="214.000000pt" viewBox="0 0 214.000000 214.000000"
 preserveAspectRatio="xMidYMid meet">

<g transform="translate(0.000000,214.000000) scale(0.100000,-0.100000)"
fill="#ddd" stroke="none">
<path d="M655 1814 c-12 -12 -15 -31 -13 -73 3 -47 7 -58 26 -66 14 -6 22 -18
22 -35 0 -22 -8 -30 -49 -47 -62 -26 -102 -82 -109 -153 -4 -48 -4 -50 21 -50
23 0 27 5 33 46 10 67 56 110 126 119 29 4 188 5 353 3 329 -3 327 -3 367 -66
11 -19 22 -58 25 -92 l6 -60 -359 -2 -359 -3 0 -25 0 -25 358 -3 357 -2 0
-270 0 -270 -300 0 -300 0 0 -30 0 -30 300 0 301 0 -3 -107 -3 -108 -303 -3
-303 -2 3 -23 3 -22 300 -5 c283 -5 300 -6 303 -24 2 -10 -2 -22 -10 -27 -7
-5 -142 -9 -300 -9 l-288 0 0 -25 0 -25 303 0 304 0 21 23 22 23 0 557 c0 447
-3 564 -14 590 -18 45 -71 95 -109 105 -27 7 -33 14 -35 40 -2 18 1 32 7 32
24 0 41 33 41 80 0 83 17 80 -380 80 -308 0 -350 -2 -365 -16z m690 -64 l0
-25 -242 -3 -243 -2 0 -25 0 -25 213 -2 212 -3 0 -25 0 -25 -268 -3 c-232 -2
-268 0 -273 13 -8 20 13 45 37 45 13 0 19 7 19 24 0 23 -4 25 -52 28 -42 2
-54 7 -56 22 -2 10 2 22 10 27 7 5 155 8 328 6 l315 -2 0 -25z"/>
<path d="M1674 1575 c-47 -19 -56 -55 -52 -200 3 -126 3 -127 32 -152 34 -29
77 -26 111 8 17 17 20 35 23 137 4 141 -8 190 -53 208 -24 10 -37 10 -61 -1z
m40 -51 c12 -4 16 -20 16 -55 0 -46 -2 -49 -25 -49 -23 0 -25 3 -25 48 0 59 5
67 34 56z m11 -209 c0 -43 -3 -50 -20 -50 -16 0 -21 8 -23 39 -4 49 3 68 25
64 14 -3 18 -14 18 -53z"/>
<path d="M332 1324 c-20 -14 -23 -23 -20 -72 3 -48 7 -59 26 -67 36 -16 30
-68 -10 -93 -48 -30 -84 -71 -107 -122 -19 -42 -21 -65 -21 -336 l0 -291 23
-21 c23 -21 30 -22 278 -22 254 0 256 0 277 23 22 23 22 29 22 313 0 269 -2
292 -21 334 -24 53 -51 84 -101 116 -32 20 -38 30 -38 59 0 24 5 35 15 35 38
0 49 106 15 140 -18 18 -33 20 -168 20 -119 0 -152 -3 -170 -16z m306 -71 c3
-23 3 -23 -137 -23 l-141 0 0 25 0 26 138 -3 c134 -3 137 -4 140 -25z m-60
-128 c3 -49 4 -51 49 -75 26 -14 60 -42 77 -63 l31 -39 0 -241 0 -242 -130 0
-130 0 0 190 0 190 108 3 c106 3 107 3 107 27 l0 25 -135 0 -135 0 0 -245 0
-245 161 0 160 0 -3 -28 -3 -27 -229 -3 c-160 -2 -233 1 -242 9 -11 9 -14 62
-14 268 0 150 5 272 11 294 13 49 67 109 119 132 39 17 40 20 40 66 0 28 5 49
13 53 6 2 41 4 77 3 l65 -2 3 -50z"/>
<path d="M530 765 c0 -20 5 -25 25 -25 20 0 25 5 25 25 0 20 -5 25 -25 25 -20
0 -25 -5 -25 -25z"/>
<path d="M530 655 c0 -20 5 -25 25 -25 20 0 25 5 25 25 0 20 -5 25 -25 25 -20
0 -25 -5 -25 -25z"/>
<path d="M530 545 c0 -20 5 -25 25 -25 20 0 25 5 25 25 0 20 -5 25 -25 25 -20
0 -25 -5 -25 -25z"/>
<path d="M943 1153 c-74 -41 -104 -134 -68 -214 54 -119 237 -118 290 2 22 49
16 125 -13 166 -43 60 -143 82 -209 46z m133 -54 c47 -29 63 -82 39 -133 -39
-82 -135 -87 -186 -10 -34 51 -19 108 37 145 37 24 68 24 110 -2z"/>
<path d="M1570 1065 l0 -25 161 0 160 0 -3 -42 -3 -43 -157 -3 -158 -3 0 -24
0 -25 135 0 135 0 0 -254 0 -255 -26 -20 c-23 -18 -41 -21 -135 -21 l-109 0 0
-25 0 -25 128 0 128 0 32 33 32 33 0 258 0 258 30 26 c27 24 30 32 30 88 0 93
-2 94 -208 94 l-172 0 0 -25z"/>
<path d="M1240 1010 c0 -25 4 -30 25 -30 21 0 25 5 25 30 0 25 -4 30 -25 30
-21 0 -25 -5 -25 -30z"/>
<path d="M1570 765 c0 -25 0 -25 95 -25 95 0 95 0 95 25 0 25 0 25 -95 25 -95
0 -95 0 -95 -25z"/>
<path d="M1570 655 c0 -25 0 -25 95 -25 95 0 95 0 95 25 0 25 0 25 -95 25 -95
0 -95 0 -95 -25z"/>
<path d="M1570 545 c0 -25 0 -25 95 -25 95 0 95 0 95 25 0 25 0 25 -95 25 -95
0 -95 0 -95 -25z"/>
</g>
</svg>
